# xmcd
# 
# Track frame offsets:
#     150
#     24094
#     40997
#     57421
#     79938
#     98306
#     117231
#     129807
#     148931
#     174845
#     190393
# 
# Disc length: 2740
# 
# Revision: 2
# Processed by: cddbd v1.5.2PL0 Copyright (c) Steve Scherf et al.
# Submitted via: fre:ac v1.0.31
# 
DISCID=860ab20b
DTITLE=Samantha Fish - Kill Or Be Kind
DYEAR=2019
DGENRE=Blues
TTITLE0=Bulletproof (Tangle Eye Mix)
TTITLE1=Kill Or Be Kind
TTITLE2=Love Letters
TTITLE3=Watch It Die
TTITLE4=Try Not To Fall In Love With You
TTITLE5=Fair-weather
TTITLE6=Love Your Lies
TTITLE7=Dream Girl
TTITLE8=She Don't Live Around Here
TTITLE9=Dirty
TTITLE10=You Got It Bad
EXTD=
EXTT0=
EXTT1=
EXTT2=
EXTT3=
EXTT4=
EXTT5=
EXTT6=
EXTT7=
EXTT8=
EXTT9=
EXTT10=
PLAYORDER=
